<svg id="behance" xmlns="http://www.w3.org/2000/svg" width="83.2" height="83.2" viewBox="0 0 83.2 83.2" fill="#fff">
  <path id="Path_28" data-name="Path 28" d="M130.75,181H121v9.75h9.75a4.875,4.875,0,1,0,0-9.75Zm0,0" transform="translate(-101.338 -151.588)"/>
  <path id="Path_29" data-name="Path 29" d="M130.75,271H121v9.75h9.75a4.875,4.875,0,1,0,0-9.75Zm0,0" transform="translate(-101.338 -226.963)"/>
  <path id="Path_30" data-name="Path 30" d="M310.459,241a7.328,7.328,0,0,0-6.9,4.875h13.792A7.328,7.328,0,0,0,310.459,241Zm0,0" transform="translate(-254.234 -201.838)" />
  <path id="Path_31" data-name="Path 31" d="M70.85,0H12.187A12.2,12.2,0,0,0,0,12.187V71.012A12.2,12.2,0,0,0,12.187,83.2H70.85A12.342,12.342,0,0,0,83.2,71.012V12.187A12.342,12.342,0,0,0,70.85,0ZM46.475,24.537h19.5v4.875h-19.5ZM39.162,48.912a9.76,9.76,0,0,1-9.75,9.75H14.787V24.537H29.412A9.709,9.709,0,0,1,35.794,41.6,9.687,9.687,0,0,1,39.162,48.912Zm29.25,0H49.329a7.315,7.315,0,0,0,13.232,1.216l4.218,2.443a12.189,12.189,0,1,1,1.633-6.1Zm0,0"/>
</svg>
