<svg xmlns="http://www.w3.org/2000/svg" width="38.064" height="28.548" viewBox="0 0 38.064 28.548" fill="#fff">
  <path id="envelope-solid" d="M37.343,73.427a.448.448,0,0,1,.721.349v15.2A3.569,3.569,0,0,1,34.5,92.548H3.569A3.569,3.569,0,0,1,0,88.98v-15.2a.445.445,0,0,1,.721-.349c1.665,1.294,3.873,2.937,11.456,8.446,1.569,1.145,4.215,3.554,6.855,3.539,2.654.022,5.353-2.438,6.862-3.539C33.477,76.371,35.678,74.72,37.343,73.427ZM19.032,83.032c1.725.03,4.208-2.171,5.457-3.078,9.865-7.159,10.616-7.784,12.891-9.568a1.779,1.779,0,0,0,.684-1.405V67.569A3.569,3.569,0,0,0,34.5,64H3.569A3.569,3.569,0,0,0,0,67.569v1.413a1.79,1.79,0,0,0,.684,1.405c2.275,1.777,3.026,2.409,12.891,9.568C14.824,80.861,17.307,83.062,19.032,83.032Z" transform="translate(0 -64)"/>
</svg>

