<svg xmlns="http://www.w3.org/2000/svg" width="40.009" height="40" viewBox="0 0 40.009 40" fill="#fff">
  <path id="instagram-brands" d="M19.934,41.569A10.255,10.255,0,1,0,30.189,51.825,10.239,10.239,0,0,0,19.934,41.569Zm0,16.923A6.667,6.667,0,1,1,26.6,51.825,6.68,6.68,0,0,1,19.934,58.492ZM33,41.15a2.392,2.392,0,1,1-2.392-2.392A2.387,2.387,0,0,1,33,41.15Zm6.792,2.428c-.152-3.2-.884-6.043-3.231-8.381s-5.177-3.07-8.381-3.231c-3.3-.187-13.2-.187-16.5,0-3.2.152-6.034.884-8.381,3.222S.226,40.365.066,43.569c-.187,3.3-.187,13.2,0,16.5.152,3.2.884,6.043,3.231,8.381s5.177,3.07,8.381,3.231c3.3.187,13.2.187,16.5,0,3.2-.152,6.043-.884,8.381-3.231s3.07-5.177,3.231-8.381C39.981,56.77,39.981,46.88,39.793,43.578ZM35.527,63.616a6.75,6.75,0,0,1-3.8,3.8c-2.633,1.044-8.881.8-11.791.8s-9.167.232-11.791-.8a6.75,6.75,0,0,1-3.8-3.8c-1.044-2.633-.8-8.881-.8-11.791s-.232-9.167.8-11.791a6.75,6.75,0,0,1,3.8-3.8c2.633-1.044,8.881-.8,11.791-.8s9.167-.232,11.791.8a6.75,6.75,0,0,1,3.8,3.8c1.044,2.633.8,8.881.8,11.791S36.571,60.992,35.527,63.616Z" transform="translate(0.075 -31.825)"/>
</svg>
