<svg xmlns="http://www.w3.org/2000/svg" width="40" height="40" viewBox="0 0 40 40" fill="#fff">
  <path id="linkedin-brands" d="M37.143,32H2.848A2.869,2.869,0,0,0,0,34.884V69.116A2.869,2.869,0,0,0,2.848,72H37.143A2.877,2.877,0,0,0,40,69.116V34.884A2.877,2.877,0,0,0,37.143,32ZM12.089,66.286H6.161V47.2H12.1V66.286Zm-2.964-21.7a3.438,3.438,0,1,1,3.437-3.437A3.439,3.439,0,0,1,9.125,44.589Zm25.188,21.7H28.384V57c0-2.214-.045-5.062-3.08-5.062-3.089,0-3.562,2.411-3.562,4.9v9.446H15.813V47.2H21.5V49.8h.08a6.244,6.244,0,0,1,5.616-3.08c6,0,7.116,3.955,7.116,9.1Z" transform="translate(0 -32)"/>
</svg>
