<svg xmlns="http://www.w3.org/2000/svg" width="164.031" height="53.478" viewBox="0 0 164.031 53.478" fill="#fff"><g transform="translate(0 0)"><path class="a" d="M27.556,16.8c7.281,0,13.139,2.427,17.742,7.365s6.946,11.382,6.946,19.416S49.9,57.975,45.3,62.913a23.474,23.474,0,0,1-17.742,7.365c-7.281,0-13.223-2.427-17.826-7.365S2.7,51.531,2.7,43.5,5.043,29.019,9.646,24.081,20.275,16.8,27.556,16.8Zm-.084,47.619A16.363,16.363,0,0,0,40.193,58.9c3.348-3.682,4.938-8.787,4.938-15.4S43.457,31.78,40.193,28.1a16.138,16.138,0,0,0-12.553-5.524,16.538,16.538,0,0,0-12.8,5.524c-3.348,3.682-5.021,8.787-5.021,15.4,0,6.528,1.674,11.717,4.938,15.4A16.486,16.486,0,0,0,27.472,64.419Z" transform="translate(-2.7 -16.8)"/><path class="a" d="M93.3,17.8H76.9v6.109H93.136c7.532,0,12.637,1.674,15.4,5.105,2.678,3.348,4.1,8.2,4.1,14.395,0,6.36-1.339,11.3-4.1,14.729q-4.143,5.272-15.315,5.272H76.9V69.52H93.3q26.362,0,26.362-26.111Q119.665,17.8,93.3,17.8Z" transform="translate(-14.544 -16.963)"/><path class="a" d="M169.753,70.441c-6.026,0-10.461-1.172-13.474-3.515a14.761,14.761,0,0,1-5.607-8.2A47.335,47.335,0,0,1,149.5,47.761V17.8h6.863V47.593c0,6.779,1.172,11.3,3.431,13.39,2.26,2.176,5.607,3.18,10.043,3.18s7.7-1.088,10.043-3.18c2.26-2.176,3.431-6.611,3.431-13.39V17.8h6.863V47.677q0,9.415-2.26,13.809a14.43,14.43,0,0,1-6.779,6.611A24.4,24.4,0,0,1,169.753,70.441Z" transform="translate(-26.142 -16.963)"/></g></svg>
